<svg width="533" height="538" viewBox="0 0 533 538" fill="none" xmlns="http://www.w3.org/2000/svg">
<path d="M269.147 431.41C247.717 431.41 227.277 427.226 208.547 419.692L151.119 477.088V380.568C123.571 351.469 106.645 312.222 106.645 268.998C106.645 179.3 179.399 106.586 269.147 106.586C340.209 106.586 400.58 152.194 422.651 215.709H533C508.258 92.6739 399.533 0.00341797 269.147 0.00341797C120.502 0.00341797 0 120.439 0 269.002C0 417.565 120.502 538 269.147 538C399.533 538 508.258 445.33 533 322.295H422.651C400.58 385.802 340.209 431.41 269.147 431.41Z" fill="#6C63FF"/>
<path d="M422.651 215.705H533C508.258 92.6705 399.533 0 269.147 0C355.606 0 422.651 111.176 422.651 215.705Z" fill="#6C63FF"/>
<path d="M422.651 322.291H533C508.258 445.326 399.533 537.996 269.147 537.996C355.606 537.996 422.651 426.82 422.651 322.291Z" fill="#6C63FF"/>
</svg>
